<?xml version="1.0" encoding="UTF-8"?>
<svg width="18px" height="18px" viewBox="0 0 18 18" version="1.1" xmlns="http://www.w3.org/2000/svg" xmlns:xlink="http://www.w3.org/1999/xlink">
    <!-- Generator: sketchtool 46.1 (44463) - http://www.bohemiancoding.com/sketch -->
    <title>AE85716E-CA55-49F4-8AFB-AE0AC574C733</title>
    <desc>Created with sketchtool.</desc>
    <defs></defs>
    <g id="Board-view" stroke="none" stroke-width="1" fill="none" fill-rule="evenodd">
        <g transform="translate(-993.000000, -13.000000)" id="g-dns-material" fill="#FFFFFF">
            <path d="M996.984,19 C997.528003,19 997.999998,18.800002 998.4,18.4 C998.800002,17.999998 999,17.5280027 999,16.984 C999,16.4399973 998.800002,15.9760019 998.4,15.592 C997.999998,15.2079981 997.528003,15.016 996.984,15.016 C996.439997,15.016 995.976002,15.2079981 995.592,15.592 C995.207998,15.9760019 995.016,16.4399973 995.016,16.984 C995.016,17.5280027 995.207998,17.999998 995.592,18.4 C995.976002,18.800002 996.439997,19 996.984,19 Z M1010.016,13 C1010.288,13 1010.52,13.095999 1010.712,13.288 C1010.904,13.480001 1011,13.7119986 1011,13.984 L1011,19.984 C1011,20.2560014 1010.904,20.495999 1010.712,20.704 C1010.52,20.912001 1010.288,21.016 1010.016,21.016 L993.984,21.016 C993.711999,21.016 993.480001,20.912001 993.288,20.704 C993.095999,20.495999 993,20.2560014 993,19.984 L993,13.984 C993,13.7119986 993.095999,13.480001 993.288,13.288 C993.480001,13.095999 993.711999,13 993.984,13 L1010.016,13 Z M996.984,28.984 C997.528003,28.984 997.999998,28.7920019 998.4,28.408 C998.800002,28.0239981 999,27.5600027 999,27.016 C999,26.4719973 998.800002,26.000002 998.4,25.6 C997.999998,25.199998 997.528003,25 996.984,25 C996.439997,25 995.976002,25.199998 995.592,25.6 C995.207998,26.000002 995.016,26.4719973 995.016,27.016 C995.016,27.5600027 995.207998,28.0239981 995.592,28.408 C995.976002,28.7920019 996.439997,28.984 996.984,28.984 Z M1010.016,22.984 C1010.288,22.984 1010.52,23.083999 1010.712,23.284 C1010.904,23.484001 1011,23.7279986 1011,24.016 L1011,30.016 C1011,30.2880014 1010.904,30.519999 1010.712,30.712 C1010.52,30.904001 1010.288,31 1010.016,31 L993.984,31 C993.711999,31 993.480001,30.904001 993.288,30.712 C993.095999,30.519999 993,30.2880014 993,30.016 L993,24.016 C993,23.7279986 993.095999,23.484001 993.288,23.284 C993.480001,23.083999 993.711999,22.984 993.984,22.984 L1010.016,22.984 Z"></path>
        </g>
    </g>
</svg>