<?xml version="1.0" encoding="UTF-8"?>
<svg width="18px" height="19px" viewBox="0 0 18 19" version="1.1" xmlns="http://www.w3.org/2000/svg" xmlns:xlink="http://www.w3.org/1999/xlink">
    <!-- Generator: sketchtool 46.1 (44463) - http://www.bohemiancoding.com/sketch -->
    <title>784C943A-FBA6-40C1-8CD4-9AB92B7AB3E3</title>
    <desc>Created with sketchtool.</desc>
    <defs></defs>
    <g id="Board-view" stroke="none" stroke-width="1" fill="none" fill-rule="evenodd">
        <g transform="translate(-804.000000, -13.000000)" id="group" fill="#FFFFFF">
            <g transform="translate(793.000000, 13.000000)">
                <g id="-g-Nav-3" transform="translate(11.000000, 0.000000)">
                    <path d="M11.016,12.3705036 L11.016,14.2386091 L3.984,14.2386091 L3.984,12.3705036 L11.016,12.3705036 Z M15.984,17.0863309 L15.984,6.67505995 L2.016,6.67505995 L2.016,17.0863309 L15.984,17.0863309 Z M15.984,1.91366906 C16.5280027,1.91366906 16.999998,2.10351529 17.4,2.48321343 C17.800002,2.86291157 18,3.31094866 18,3.82733813 L18,17.0863309 C18,17.6027204 17.800002,18.0507575 17.4,18.4304556 C16.999998,18.8101538 16.5280027,19 15.984,19 L2.016,19 C1.4559972,19 0.98000196,18.8101538 0.588,18.4304556 C0.19599804,18.0507575 0,17.6027204 0,17.0863309 L0,3.82733813 C0,3.31094866 0.19599804,2.86291157 0.588,2.48321343 C0.98000196,2.10351529 1.4559972,1.91366906 2.016,1.91366906 L3,1.91366906 L3,0 L5.016,0 L5.016,1.91366906 L12.984,1.91366906 L12.984,0 L15,0 L15,1.91366906 L15.984,1.91366906 Z M14.016,8.54316547 L14.016,10.4568345 L3.984,10.4568345 L3.984,8.54316547 L14.016,8.54316547 Z" id="event_note---material"></path>
                </g>
            </g>
        </g>
    </g>
</svg>