<?xml version="1.0" encoding="UTF-8"?>
<svg width="18px" height="18px" viewBox="0 0 18 18" version="1.1" xmlns="http://www.w3.org/2000/svg" xmlns:xlink="http://www.w3.org/1999/xlink">
    <!-- Generator: sketchtool 46.1 (44463) - http://www.bohemiancoding.com/sketch -->
    <title>104ABBC7-9EC2-4FCC-B93C-C59810BE071C</title>
    <desc>Created with sketchtool.</desc>
    <defs></defs>
    <g id="Symbols" stroke="none" stroke-width="1" fill="none" fill-rule="evenodd" opacity="0.5">
        <g id="Board-1" transform="translate(-166.000000, -481.000000)" fill="#32325D">
            <g id="Add-tast" transform="translate(85.000000, 480.000000)">
                <path d="M90,16.68 C91.200006,16.68 92.3199948,16.3733364 93.36,15.76 C94.3733384,15.1733304 95.1733304,14.3733384 95.76,13.36 C96.3733364,12.3199948 96.68,11.200006 96.68,10 C96.68,8.799994 96.3733364,7.6800052 95.76,6.64 C95.1733304,5.6266616 94.3733384,4.8266696 93.36,4.24 C92.3199948,3.6266636 91.200006,3.32 90,3.32 C88.799994,3.32 87.6800052,3.6266636 86.64,4.24 C85.6266616,4.8266696 84.8266696,5.6266616 84.24,6.64 C83.6266636,7.6800052 83.32,8.799994 83.32,10 C83.32,11.200006 83.6266636,12.3199948 84.24,13.36 C84.8266696,14.3733384 85.6266616,15.1733304 86.64,15.76 C87.6800052,16.3733364 88.799994,16.68 90,16.68 Z M90,1.68 C91.5200076,1.68 92.9266602,2.0599962 94.22,2.82 C95.4733396,3.5400036 96.4599964,4.5266604 97.18,5.78 C97.9400038,7.0733398 98.32,8.4799924 98.32,10 C98.32,11.5200076 97.9400038,12.9266602 97.18,14.22 C96.4599964,15.4733396 95.4733396,16.4599964 94.22,17.18 C92.9266602,17.9400038 91.5200076,18.32 90,18.32 C88.4799924,18.32 87.0733398,17.9400038 85.78,17.18 C84.5266604,16.446663 83.5400036,15.4533396 82.82,14.2 C82.0599962,12.9066602 81.68,11.5066742 81.68,10 C81.68,8.4933258 82.0599962,7.0933398 82.82,5.8 C83.553337,4.5466604 84.5466604,3.553337 85.8,2.82 C87.0933398,2.0599962 88.4933258,1.68 90,1.68 Z M90.82,5.82 L90.82,9.18 L94.18,9.18 L94.18,10.82 L90.82,10.82 L90.82,14.18 L89.18,14.18 L89.18,10.82 L85.82,10.82 L85.82,9.18 L89.18,9.18 L89.18,5.82 L90.82,5.82 Z" id="add_circle_outline---material" opacity="0.75"></path>
            </g>
        </g>
    </g>
</svg>