<?xml version="1.0" encoding="UTF-8"?>
<svg width="18px" height="18px" viewBox="0 0 18 18" version="1.1" xmlns="http://www.w3.org/2000/svg" xmlns:xlink="http://www.w3.org/1999/xlink">
    <!-- Generator: sketchtool 46.1 (44463) - http://www.bohemiancoding.com/sketch -->
    <title>585BD46F-A849-41A4-BA4A-DCD3E8D93535</title>
    <desc>Created with sketchtool.</desc>
    <defs></defs>
    <g id="Board-view" stroke="none" stroke-width="1" fill="none" fill-rule="evenodd">
        <g transform="translate(-929.000000, -13.000000)" id="g-insert-chart-material" fill="#FFFFFF">
            <path d="M943.016,27.016 L943.016,22.984 L941,22.984 L941,27.016 L943.016,27.016 Z M938.984,27.016 L938.984,16.984 L937.016,16.984 L937.016,27.016 L938.984,27.016 Z M935,27.016 L935,19.984 L932.984,19.984 L932.984,27.016 L935,27.016 Z M944.984,13 C945.528003,13 945.999998,13.199998 946.4,13.6 C946.800002,14.000002 947,14.4719973 947,15.016 L947,28.984 C947,29.5280027 946.800002,29.999998 946.4,30.4 C945.999998,30.800002 945.528003,31 944.984,31 L931.016,31 C930.471997,31 930.000002,30.800002 929.6,30.4 C929.199998,29.999998 929,29.5280027 929,28.984 L929,15.016 C929,14.4719973 929.199998,14.000002 929.6,13.6 C930.000002,13.199998 930.471997,13 931.016,13 L944.984,13 Z"></path>
        </g>
    </g>
</svg>