<?xml version="1.0" encoding="UTF-8"?>
<svg width="19px" height="20px" viewBox="0 0 19 20" version="1.1" xmlns="http://www.w3.org/2000/svg" xmlns:xlink="http://www.w3.org/1999/xlink">
    <!-- Generator: sketchtool 46.1 (44463) - http://www.bohemiancoding.com/sketch -->
    <title>4666A45B-4693-4F12-BB98-F9C53C61DA3F</title>
    <desc>Created with sketchtool.</desc>
    <defs></defs>
    <g id="Board-view" stroke="none" stroke-width="1" fill="none" fill-rule="evenodd">
        <g transform="translate(-867.000000, -13.000000)" id="g-settings-material" fill="#FFFFFF">
            <path d="M876.5,26.5096154 C877.109579,26.5096154 877.680073,26.3493606 878.2115,26.0288462 C878.742928,25.7083317 879.164938,25.2796501 879.477542,24.7427885 C879.790146,24.2059268 879.946446,23.6250031 879.946446,23 C879.946446,22.3749969 879.790146,21.7900668 879.477542,21.2451923 C879.164938,20.7003178 878.742928,20.2676298 878.2115,19.9471154 C877.680073,19.626601 877.109579,19.4663462 876.5,19.4663462 C875.890421,19.4663462 875.323834,19.626601 874.800222,19.9471154 C874.27661,20.2676298 873.858508,20.7003178 873.545903,21.2451923 C873.233299,21.7900668 873.076999,22.3749969 873.076999,23 C873.076999,23.6250031 873.233299,24.2059268 873.545903,24.7427885 C873.858508,25.2796501 874.27661,25.7083317 874.800222,26.0288462 C875.323834,26.3493606 875.890421,26.5096154 876.5,26.5096154 Z M883.791461,23.9855769 L885.831194,25.6201923 C885.924976,25.7003209 885.979681,25.8044865 885.995311,25.9326923 C886.010941,26.0608981 885.987496,26.1810892 885.924975,26.2932692 L883.955577,29.7548077 C883.893057,29.8669877 883.810999,29.9391024 883.709403,29.9711538 C883.607806,30.0032053 883.494489,29.9951925 883.369447,29.9471154 L880.95459,28.9615385 C880.329382,29.4262844 879.774517,29.7548067 879.28998,29.9471154 L878.938302,32.5673077 C878.907042,32.6955135 878.848429,32.7996791 878.762463,32.8798077 C878.676497,32.9599363 878.578809,33 878.469398,33 L874.530602,33 C874.421191,33 874.323503,32.9599363 874.237537,32.8798077 C874.151571,32.7996791 874.100773,32.6955135 874.085143,32.5673077 L873.71002,29.9471154 C873.053551,29.6746781 872.506501,29.3461558 872.068855,28.9615385 L869.630553,29.9471154 C869.380469,30.0592954 869.185095,29.9951935 869.044423,29.7548077 L867.075025,26.2932692 C867.012504,26.1810892 866.989059,26.0608981 867.004689,25.9326923 C867.020319,25.8044865 867.075024,25.7003209 867.168806,25.6201923 L869.231984,23.9855769 C869.200724,23.7612168 869.185094,23.4326945 869.185094,23 C869.185094,22.5673055 869.200724,22.2387832 869.231984,22.0144231 L867.168806,20.3798077 C867.075024,20.2996791 867.020319,20.1955135 867.004689,20.0673077 C866.989059,19.9391019 867.012504,19.8189108 867.075025,19.7067308 L869.044423,16.2451923 C869.185095,16.0048065 869.380469,15.9407046 869.630553,16.0528846 L872.068855,17.0384615 C872.631543,16.6057671 873.178592,16.2772447 873.71002,16.0528846 L874.085143,13.4326923 C874.100773,13.3044865 874.151571,13.2003209 874.237537,13.1201923 C874.323503,13.0400637 874.421191,13 874.530602,13 L878.469398,13 C878.578809,13 878.676497,13.0400637 878.762463,13.1201923 C878.848429,13.2003209 878.907042,13.3044865 878.938302,13.4326923 L879.28998,16.0528846 C879.899559,16.2932704 880.454423,16.6217928 880.95459,17.0384615 L883.369447,16.0528846 C883.494489,16.0048075 883.607806,15.9967947 883.709403,16.0288462 C883.810999,16.0608976 883.893057,16.1330123 883.955577,16.2451923 L885.924975,19.7067308 C885.987496,19.8189108 886.010941,19.9391019 885.995311,20.0673077 C885.979681,20.1955135 885.924976,20.2996791 885.831194,20.3798077 L883.791461,22.0144231 C883.822721,22.2387832 883.838351,22.5673055 883.838351,23 C883.838351,23.4326945 883.822721,23.7612168 883.791461,23.9855769 Z"></path>
        </g>
    </g>
</svg>